# xmcd
#
# Track frame offsets: 
#        150
#        13591
#        20268
#        30981
#        45364
#        73580
#        84918
#        101579
#        111306
#        123472
#        137240
#        152705
#        167929
#        177821
#
# Disc length: 2601 seconds
#
# Revision: 0
# Processed by: cddbd v1.5.2PL0 Copyright (c) Steve Scherf et al.
# Submitted via: ExactAudioCopy v0.95b4
#
DISCID=aa0a270e
DTITLE=tiMOTHy - Primitive Recordings
DYEAR=2007
DGENRE=Primitive
TTITLE0=Angeline
TTITLE1=Little Sadie
TTITLE2=The Queen of all the Gypsies
TTITLE3=Dyin' Bed
TTITLE4=Pretty Polly
TTITLE5=Haunted Road Blues
TTITLE6=The Valley
TTITLE7=Summer's Night
TTITLE8=Lazy Farmer
TTITLE9=Friday Morning
TTITLE10=Satan Your Kingdom Must Come Down
TTITLE11=The Cuckoo Bird
TTITLE12=Curtains of Night
TTITLE13=Two White Horses
EXTD=
EXTT0=
EXTT1=
EXTT2=
EXTT3=
EXTT4=
EXTT5=
EXTT6=
EXTT7=
EXTT8=
EXTT9=
EXTT10=
EXTT11=
EXTT12=
EXTT13=
PLAYORDER=
